<svg xmlns="http://www.w3.org/2000/svg" viewBox="0 0 676 257"><g fill="none" transform="translate(1)"><path fill="#000" d="M135.3-2.84217094e-14 135.3 170.2 94.5 170.2 94.5 154.1C90.2 159.9 85 164.3 78.8 167.3 72.6 170.3 65.6 171.8 57.8 171.8 46.3 171.8 36.2 169.1 27.5 163.8 18.8 158.5 12 150.9 7.2 141.2 2.4 131.5 0 120.3 0 107.6 0 95.1 2.4 84 7.1 74.6 11.8 65.1 18.5 57.8 27.1 52.6 35.7 47.4 45.6 44.8 56.9 44.8 64.9 44.8 72 46.3 78.4 49.4 84.7 52.5 90.1 56.8 94.6 62.5L94.6.1 135.3.1 135.3-2.84217094e-14ZM87.2 131.1C92.1 125.4 94.5 117.9 94.5 108.7 94.5 99.4 92 91.9 87.2 86.2 82.3 80.5 75.9 77.7 67.9 77.7 59.9 77.7 53.5 80.6 48.5 86.3 43.5 92 41 99.5 41 108.7 41 117.9 43.5 125.3 48.5 131.1 53.5 136.8 59.9 139.7 67.9 139.7 75.8 139.7 82.3 136.9 87.2 131.1ZM259.7 52.7C269.9 58 277.9 65.4 283.6 75 289.3 84.6 292.1 95.6 292.1 108.2 292.1 120.9 289.3 132 283.6 141.6 277.9 151.2 270 158.6 259.7 163.8 249.4 169.1 237.6 171.7 224.1 171.7 210.6 171.7 198.8 169.1 188.5 163.8 178.2 158.5 170.3 151.1 164.8 141.6 159.2 132 156.4 120.9 156.4 108.2 156.4 95.7 159.2 84.6 164.8 75 170.4 65.4 178.3 58 188.5 52.7 198.7 47.4 210.6 44.8 224.1 44.8 237.6 44.7 249.4 47.4 259.7 52.7ZM204.9 86.3C200 92 197.6 99.4 197.6 108.6 197.6 117.9 200 125.4 204.9 131.1 209.8 136.8 216.2 139.6 224.2 139.6 232.3 139.6 238.8 136.8 243.7 131.1 248.6 125.4 251 117.9 251 108.6 251 99.4 248.5 92 243.5 86.3 238.5 80.6 232.1 77.8 224.1 77.8 216.2 77.8 209.7 80.6 204.9 86.3ZM509.8 57.4C517.9 66 522 77.5 522 92L522 170.2 481.2 170.2 481.2 103.7C481.2 96.7 479.4 91.1 475.7 87.1 472 83 467.1 81 460.8 81 453.6 81.2 447.9 83.8 443.7 88.9 439.5 94 437.4 100.7 437.4 109L437.4 170.3 396.6 170.3 396.6 103.8C396.6 96.8 394.8 91.2 391.1 87.2 387.4 83.1 382.5 81.1 376.2 81.1 369 81.3 363.3 83.9 359 89 354.7 94.1 352.6 100.8 352.6 109.1L352.6 170.4 312 170.4 312 46.1 352.6 46.1 352.6 66.5C356.9 59.3 362.4 53.8 369.2 50.1 376 46.4 383.9 44.5 392.9 44.5 403 44.5 411.6 46.9 418.8 51.8 426 56.7 431.1 63.5 434.2 72.2 438.2 63 443.9 56.1 451.3 51.4 458.7 46.7 467.5 44.4 477.6 44.4 490.9 44.5 501.7 48.8 509.8 57.4ZM641.7 52.7C651.9 58 659.9 65.4 665.6 75 671.3 84.6 674.1 95.6 674.1 108.2 674.1 120.9 671.3 132 665.6 141.6 659.9 151.2 652 158.6 641.7 163.8 631.4 169.1 619.6 171.7 606.1 171.7 592.6 171.7 580.8 169.1 570.5 163.8 560.2 158.5 552.3 151.1 546.8 141.6 541.2 132 538.4 120.9 538.4 108.2 538.4 95.7 541.2 84.6 546.8 75 552.4 65.4 560.3 58 570.5 52.7 580.7 47.4 592.6 44.8 606.1 44.8 619.6 44.7 631.4 47.4 641.7 52.7ZM586.8 86.3C581.9 92 579.5 99.4 579.5 108.6 579.5 117.9 581.9 125.4 586.8 131.1 591.7 136.8 598.1 139.6 606.1 139.6 614.2 139.6 620.7 136.8 625.6 131.1 630.5 125.4 632.9 117.9 632.9 108.6 632.9 99.4 630.4 92 625.4 86.3 620.4 80.6 614 77.8 606 77.8 598.2 77.8 591.7 80.6 586.8 86.3Z" transform="translate(0 84.5)"/><path fill="#1FBCE5" d="M253.3,92.8 L195.9,92.8 C186.1,92.8 178.2,84.9 178.2,75.1 L178.2,17.7 C178.2,7.9 186.1,0 195.9,0 L253.3,0 C263.1,0 271,7.9 271,17.7 L271,75.1 C271,84.8 263.1,92.8 253.3,92.8 Z"/><path fill="#FEDD15" d="M370.5,92.8 L313.1,92.8 C303.3,92.8 295.4,84.9 295.4,75.1 L295.4,17.7 C295.4,7.9 303.3,0 313.1,0 L370.5,0 C380.3,0 388.2,7.9 388.2,17.7 L388.2,75.1 C388.2,84.8 380.3,92.8 370.5,92.8 Z"/><path fill="#F9A23A" d="M487.6,92.8 L430.2,92.8 C420.4,92.8 412.5,84.9 412.5,75.1 L412.5,17.7 C412.5,7.9 420.4,0 430.2,0 L487.6,0 C497.4,0 505.300927,7.9 505.300927,17.7 L505.300927,75.1 C505.4,84.8 497.4,92.8 487.6,92.8 Z"/><path fill="#B388BD" d="M604.8,92.8 L547.4,92.8 C537.6,92.8 529.7,84.9 529.7,75.1 L529.7,17.7 C529.7,7.9 537.6,0 547.4,0 L604.8,0 C614.6,0 622.500927,7.9 622.500927,17.7 L622.500927,75.1 C622.6,84.8 614.6,92.8 604.8,92.8 Z"/></g></svg>